<svg width="168" height="24" viewBox="0 0 168 24" xmlns="http://www.w3.org/2000/svg"><title>logo--everything-is-fun</title><path d="M9.107 18.086H1.504C.7 18.086 0 17.386 0 16.581V1.66C0 .858.7.157 1.504.157h7.603c1.012 0 1.506.753 1.506 1.479 0 .753-.494 1.506-1.506 1.506H3.01V7.37h4.05c1.01 0 1.503.753 1.503 1.504 0 .728-.493 1.48-1.503 1.48H3.01v4.748h6.097c1.012 0 1.506.754 1.506 1.505 0 .728-.494 1.48-1.506 1.48m11.82-10.744l-3.269 9.99c-.207.649-.935.908-1.4.908h-.13c-.468 0-1.168-.26-1.376-.907l-3.296-9.99a1.844 1.844 0 0 1-.077-.519c0-.857.753-1.403 1.53-1.403.545 0 1.09.313 1.324 1.013l1.973 5.97 1.945-5.97c.234-.7.78-1.013 1.349-1.013.753 0 1.506.546 1.506 1.403 0 .181-.027.336-.079.518m9.559 5.788h-4.514v.725c0 .806.57 1.402 1.374 1.402h.207c.546 0 1.013-.232 1.272-.648.31-.52.778-.727 1.194-.727.778 0 1.504.727 1.504 1.503 0 .183-.052.364-.13.547-.752 1.427-2.127 2.309-3.84 2.309h-.207a4.38 4.38 0 0 1-4.386-4.386V9.81a4.36 4.36 0 0 1 4.36-4.388h.206c2.466 0 4.44 1.87 4.44 4.388v1.867c0 .78-.702 1.454-1.48 1.454zm-1.532-3.32c0-.885-.648-1.403-1.323-1.403h-.259c-.804 0-1.4.595-1.4 1.402v.776h2.982V9.81zm9.96-1.092c-.234-.337-.339-.312-.779-.312-.545 0-.805.26-.805.727v7.577c0 2.025-3.01 2.025-3.01 0V6.876c0-.96.727-1.451 1.506-1.451.752 0 1.142.18 1.504.543 0 0 .468-.543 1.505-.543 1.064 0 2.024.57 2.621 1.686.934 1.711-1.609 2.957-2.542 1.608m13.877-1.376l-4.514 14.09c-.676 2.13-2.466 2.257-3.583 2.257-1.089 0-1.53-.802-1.53-1.505 0-.725.441-1.479 1.53-1.479.339 0 .806-.051 1.065-.856l1.117-3.425L43.63 7.37a1.981 1.981 0 0 1-.077-.545c0-.83.753-1.403 1.504-1.403.546 0 1.115.287 1.35.99l1.894 5.394 1.713-5.343c.233-.728.778-1.04 1.322-1.04.78 0 1.531.545 1.531 1.402a1.8 1.8 0 0 1-.077.518m7.612 10.899c-2.024 0-3.659-1.35-3.659-3.685V8.485h-.519c-.96 0-1.454-.751-1.454-1.504 0-.728.494-1.48 1.454-1.48h.52V1.454c0-.959.751-1.452 1.504-1.452s1.504.493 1.504 1.452v4.049h.546c.96 0 1.454.751 1.454 1.479 0 .753-.494 1.504-1.454 1.504h-.546v6.02c0 .416.234.753.65.753.986 0 1.479.752 1.479 1.505 0 .727-.493 1.479-1.48 1.479m11.425-.001c-.753 0-1.506-.494-1.506-1.453V9.81c0-.805-.596-1.4-1.4-1.4h-.208c-.804 0-1.4.595-1.4 1.4v6.98c0 .959-.755 1.453-1.506 1.453-.752 0-1.505-.494-1.505-1.453V1.506c0-1.012.725-1.505 1.505-1.505.751 0 1.506.493 1.506 1.505V5.97c.387-.364 1.115-.546 1.503-.546h.105c2.412 0 4.41 1.947 4.41 4.386v6.98c0 .959-.751 1.453-1.504 1.453m5.77-.001c-.752 0-1.506-.494-1.506-1.453V6.877c0-.96.754-1.454 1.506-1.454.753 0 1.506.494 1.506 1.454v9.912c0 .959-.753 1.453-1.506 1.453m0-14.79c-.752 0-1.48-.494-1.48-1.478v-.52c0-.96.728-1.453 1.48-1.453.753 0 1.506.493 1.506 1.452v.52c0 .985-.753 1.48-1.506 1.48m11.958 14.789c-.754 0-1.506-.494-1.506-1.453V9.81c0-.805-.596-1.4-1.402-1.4h-.207c-.83 0-1.4.595-1.4 1.4v6.98c0 .959-.754 1.453-1.505 1.453-.753 0-1.506-.494-1.506-1.453V6.877c0-.96.727-1.454 1.506-1.454.751 0 1.142.182 1.506.546.387-.364 1.14-.546 1.53-.546h.076c2.413 0 4.411 1.843 4.411 4.282v7.084c0 .959-.751 1.453-1.503 1.453m8.596 5.448h-.209c-1.762 0-3.918-.933-4.537-2.983a1.733 1.733 0 0 1-.081-.493c0-.856.676-1.4 1.428-1.4.57 0 1.115.362 1.454 1.036.156.312.727.857 1.736.857h.21c.804 0 1.375-.596 1.375-1.402v-1.607c-.34.284-.83.544-1.428.544h-.157c-2.438 0-4.408-1.971-4.408-4.385V9.81c0-2.44 1.97-4.387 4.408-4.387h.157c.416 0 1.015.156 1.428.545.415-.389.83-.545 1.53-.545.806 0 1.48.52 1.48 1.454v12.428a4.396 4.396 0 0 1-4.385 4.385zm1.376-13.829c0-.806-.57-1.454-1.375-1.454h-.21c-.826 0-1.398.648-1.398 1.454v3.97c0 .804.572 1.427 1.398 1.427h.21c.804 0 1.375-.623 1.375-1.427v-3.97zm13.864 8.381c-.752 0-1.504-.494-1.504-1.453V6.877c0-.96.752-1.454 1.504-1.454.753 0 1.507.494 1.507 1.454v9.912c0 .959-.754 1.453-1.507 1.453m0-14.79c-.752 0-1.48-.494-1.48-1.478v-.52c0-.96.728-1.453 1.48-1.453.753 0 1.507.493 1.507 1.452v.52c0 .985-.754 1.48-1.507 1.48m8.726 14.789h-.414c-1.688 0-3.478-1.012-4.23-2.673-.833-1.765 1.662-2.907 2.67-1.247.26.47.962.936 1.56.936h.414c1.194 0 1.584-.544 1.584-1.091 0-.673-.365-.854-.883-.984-.78-.182-1.687-.416-2.415-.599-1.581-.414-2.852-1.426-2.852-3.501 0-.184.024-.39.077-.598.491-2.284 2.803-3.062 4.514-3.062h.079c1.66 0 2.7.598 3.45 1.247 1.455 1.297-.492 3.476-1.946 2.204-.414-.362-.882-.466-1.479-.466h-.104c-1.011 0-1.61.284-1.61.648v.182c0 1.61 6.18.078 6.18 4.929 0 3.063-2.701 4.075-4.595 4.075M144.7 3.14h-6.097v4.23h4.048c1.013 0 1.503.751 1.503 1.505 0 .725-.49 1.478-1.503 1.478h-4.048v6.384c0 1.01-.753 1.505-1.507 1.505-.752 0-1.505-.494-1.505-1.505V1.661c0-.804.703-1.505 1.505-1.505h7.604c1.012 0 1.507.753 1.507 1.479 0 .753-.495 1.506-1.507 1.506m9.915 15.101c-.779 0-1.142-.183-1.507-.546-.414.363-1.167.546-1.53.546h-.076c-2.83 0-4.413-1.556-4.413-4.282V6.877c0-.96.755-1.454 1.504-1.454.752 0 1.505.494 1.505 1.454v6.98c0 .805.571 1.401 1.404 1.401h.207c.802 0 1.4-.596 1.4-1.402V6.877c0-.96.751-1.454 1.506-1.454.753 0 1.505.494 1.505 1.454v9.912c0 .959-.752 1.453-1.505 1.453m11.83 0c-.755 0-1.507-.494-1.507-1.453V9.81c0-.805-.595-1.4-1.4-1.4h-.207c-.83 0-1.4.595-1.4 1.4v6.98c0 .959-.753 1.453-1.506 1.453-.752 0-1.506-.494-1.506-1.453V6.877c0-.96.726-1.454 1.506-1.454.753 0 1.143.182 1.506.546.386-.364 1.14-.546 1.53-.546h.076c2.414 0 4.412 1.843 4.412 4.282v7.084c0 .959-.751 1.453-1.504 1.453" fill="#FFF" fill-rule="evenodd"/></svg>