<?xml version="1.0" standalone="no"?>
<!DOCTYPE svg PUBLIC "-//W3C//DTD SVG 20010904//EN"
 "http://www.w3.org/TR/2001/REC-SVG-20010904/DTD/svg10.dtd">
<svg version="1.0" xmlns="http://www.w3.org/2000/svg"
 width="260.000000pt" height="260.000000pt" viewBox="0 0 260.000000 260.000000"
 preserveAspectRatio="xMidYMid meet">
<metadata>
Created by potrace 1.11, written by Peter Selinger 2001-2013
</metadata>
<g transform="translate(0.000000,260.000000) scale(0.100000,-0.100000)"
fill="#000000" stroke="none">
<path d="M0 1300 l0 -1300 1300 0 1300 0 0 1300 0 1300 -1300 0 -1300 0 0
-1300z m1525 745 c223 -58 374 -216 419 -437 9 -42 16 -82 16 -88 0 -16 -380
-14 -384 3 -31 109 -72 167 -140 198 -55 25 -167 25 -221 0 -112 -51 -176
-207 -175 -429 2 -269 108 -426 286 -425 113 1 192 57 233 168 12 30 21 62 21
70 0 13 30 15 190 15 l190 0 0 -23 c0 -13 -9 -58 -20 -101 -57 -225 -215 -384
-440 -443 -90 -24 -292 -24 -380 0 -114 30 -188 73 -270 156 -91 91 -140 180
-177 319 -23 85 -26 118 -27 262 -1 128 3 183 17 244 69 293 234 463 507 522
81 17 271 12 355 -11z"/>
</g>
</svg>
